<?xml version="1.0" standalone="no"?><!DOCTYPE svg PUBLIC "-//W3C//DTD SVG 1.1//EN" "http://www.w3.org/Graphics/SVG/1.1/DTD/svg11.dtd"><svg class="icon" height="512" viewBox="0 0 1024 1024" version="1.1" xmlns="http://www.w3.org/2000/svg"><path d="M869.306802 830.0538l78.373998 78.543867c10.82351 10.847046 10.82351 28.426423 0 39.273468-10.818393 10.843976-28.365025 10.843976-39.18751 0l-78.373999-78.54489-78.375022 78.54489c-10.821463 10.843976-28.366048 10.843976-39.18751 0-10.82351-10.847046-10.82351-28.426423 0-39.273468l78.375021-78.543867-78.375021-78.544891c-10.82351-10.843976-10.82351-28.4254 0-39.272445 10.821463-10.843976 28.366048-10.843976 39.18751 0l78.375022 78.54489 78.373999-78.54489c10.822486-10.843976 28.369118-10.843976 39.18751 0 10.82351 10.847046 10.82351 28.428469 0 39.272445l-78.373998 78.544891zM657.899928 646.689608l16.851806 12.758582-24.301475 44.965098-15.687284-7.256264a55.537897 55.537897 0 0 1-31.903618-43.932582 55.608505 55.608505 0 0 1 20.756743-50.17168c59.449997-46.910403 81.613786-149.112086 81.613786-202.520483v-138.780787c0-59.296501-99.79896-138.726551-193.903221-138.726551-93.27436 0-194.07616 80.704067-194.076161 138.726551v138.780787c0 54.220902 26.816762 156.039869 84.388992 202.360847 14.978133 12.041244 22.661116 30.996968 20.308535 50.088792-2.341325 19.089777-14.383592 35.633568-31.824823 43.659359L146.757458 811.735595c-6.597255 3.043313-23.136953 9.980305-23.136953 32.054044v56.352449l526.383592-0.022513v55.534827H123.57855c-30.578436 0-55.378262-24.843828-55.378262-55.512314v-83.337034c0-30.780027 55.378262-55.509245 55.378262-55.509245l243.367796-115.094318c-77.498048-62.345953-105.117083-185.033203-105.117082-245.669212v-138.780787c0-91.917456 127.132492-194.266495 249.497401-194.266495 122.354676 0 249.321392 102.349039 249.321392 194.266495v138.780787c0 66.658166-25.978674 185.603185-102.748129 246.157329z" fill="#000000" /></svg>